<svg xmlns="http://www.w3.org/2000/svg" xmlns:xlink="http://www.w3.org/1999/xlink" contentStyleType="text/css" height="168px" preserveAspectRatio="none" style="width:611px;height:168px;background:#FFFFFF;" version="1.1" viewBox="0 0 611 168" width="611px" zoomAndPan="magnify"><defs/><g><!--entity serilog 4.2.0--><g id="elem_serilog 4.2.0"><rect fill="#F1F1F1" height="47.6094" rx="2.5" ry="2.5" style="stroke:#181818;stroke-width:0.5;" width="116.2686" x="263" y="7"/><rect fill="#F1F1F1" height="10" style="stroke:#181818;stroke-width:0.5;" width="15" x="359.2686" y="12"/><rect fill="#F1F1F1" height="2" style="stroke:#181818;stroke-width:0.5;" width="4" x="357.2686" y="14"/><rect fill="#F1F1F1" height="2" style="stroke:#181818;stroke-width:0.5;" width="4" x="357.2686" y="18"/><text fill="#000000" font-family="sans-serif" font-size="14" lengthAdjust="spacing" textLength="76.2686" x="278" y="41.5332">serilog 4.2.0</text></g><!--entity System.Diagnostics.DiagnosticSource 9.0.0--><g id="elem_System.Diagnostics.DiagnosticSource 9.0.0"><rect fill="#F1F1F1" height="47.6094" rx="2.5" ry="2.5" style="stroke:#181818;stroke-width:0.5;" width="311.5713" x="7" y="115"/><rect fill="#F1F1F1" height="10" style="stroke:#181818;stroke-width:0.5;" width="15" x="298.5713" y="120"/><rect fill="#F1F1F1" height="2" style="stroke:#181818;stroke-width:0.5;" width="4" x="296.5713" y="122"/><rect fill="#F1F1F1" height="2" style="stroke:#181818;stroke-width:0.5;" width="4" x="296.5713" y="126"/><text fill="#000000" font-family="sans-serif" font-size="14" lengthAdjust="spacing" textLength="271.5713" x="22" y="149.5332">System.Diagnostics.DiagnosticSource 9.0.0</text></g><!--entity System.Threading.Channels 9.0.0--><g id="elem_System.Threading.Channels 9.0.0"><rect fill="#F1F1F1" height="47.6094" rx="2.5" ry="2.5" style="stroke:#181818;stroke-width:0.5;" width="251.6748" x="354" y="115"/><rect fill="#F1F1F1" height="10" style="stroke:#181818;stroke-width:0.5;" width="15" x="585.6748" y="120"/><rect fill="#F1F1F1" height="2" style="stroke:#181818;stroke-width:0.5;" width="4" x="583.6748" y="122"/><rect fill="#F1F1F1" height="2" style="stroke:#181818;stroke-width:0.5;" width="4" x="583.6748" y="126"/><text fill="#000000" font-family="sans-serif" font-size="14" lengthAdjust="spacing" textLength="211.6748" x="369" y="149.5332">System.Threading.Channels 9.0.0</text></g><!--link serilog 4.2.0 to System.Diagnostics.DiagnosticSource 9.0.0--><g id="link_serilog 4.2.0_System.Diagnostics.DiagnosticSource 9.0.0"><path d="M286.72,55 C260.31,72.72 228.9327,93.7675 202.4727,111.5175 " fill="none" id="serilog 4.2.0-to-System.Diagnostics.DiagnosticSource 9.0.0" style="stroke:#181818;stroke-width:1.0;"/><polygon fill="#181818" points="197.49,114.86,207.1924,113.168,201.6423,112.0746,202.7357,106.5244,197.49,114.86" style="stroke:#181818;stroke-width:1.0;"/></g><!--link serilog 4.2.0 to System.Threading.Channels 9.0.0--><g id="link_serilog 4.2.0_System.Threading.Channels 9.0.0"><path d="M355.5,55 C382.08,72.72 413.6674,93.7822 440.2974,111.5322 " fill="none" id="serilog 4.2.0-to-System.Threading.Channels 9.0.0" style="stroke:#181818;stroke-width:1.0;"/><polygon fill="#181818" points="445.29,114.86,440.0196,106.54,441.1295,112.0869,435.5826,113.1967,445.29,114.86" style="stroke:#181818;stroke-width:1.0;"/></g><!--SRC=[YovEBShCoKzNCD4pqZE8LT3LjLE83guiBadDrNF9J4pFooykoKmkHc87vvSM9QSgMEeP0DLpHUFH7v9Hb9gOafcNhkUSaPYNbvfJ3DK50000]--></g></svg>