<svg xmlns="http://www.w3.org/2000/svg" xmlns:xlink="http://www.w3.org/1999/xlink" contentStyleType="text/css" height="492px" preserveAspectRatio="none" style="width:948px;height:492px;background:#FFFFFF;" version="1.1" viewBox="0 0 948 492" width="948px" zoomAndPan="magnify"><defs/><g><!--entity serilog 4.2.0-dev-02332--><g id="elem_serilog 4.2.0-dev-02332"><rect fill="#F1F1F1" height="47.6094" rx="2.5" ry="2.5" style="stroke:#181818;stroke-width:0.5;" width="187.0957" x="418.5" y="7"/><rect fill="#F1F1F1" height="10" style="stroke:#181818;stroke-width:0.5;" width="15" x="585.5957" y="12"/><rect fill="#F1F1F1" height="2" style="stroke:#181818;stroke-width:0.5;" width="4" x="583.5957" y="14"/><rect fill="#F1F1F1" height="2" style="stroke:#181818;stroke-width:0.5;" width="4" x="583.5957" y="18"/><text fill="#000000" font-family="sans-serif" font-size="14" lengthAdjust="spacing" textLength="147.0957" x="433.5" y="41.5332">serilog 4.2.0-dev-02332</text></g><!--entity System.Diagnostics.DiagnosticSource 9.0.0--><g id="elem_System.Diagnostics.DiagnosticSource 9.0.0"><rect fill="#F1F1F1" height="47.6094" rx="2.5" ry="2.5" style="stroke:#181818;stroke-width:0.5;" width="311.5713" x="252" y="223"/><rect fill="#F1F1F1" height="10" style="stroke:#181818;stroke-width:0.5;" width="15" x="543.5713" y="228"/><rect fill="#F1F1F1" height="2" style="stroke:#181818;stroke-width:0.5;" width="4" x="541.5713" y="230"/><rect fill="#F1F1F1" height="2" style="stroke:#181818;stroke-width:0.5;" width="4" x="541.5713" y="234"/><text fill="#000000" font-family="sans-serif" font-size="14" lengthAdjust="spacing" textLength="271.5713" x="267" y="257.5332">System.Diagnostics.DiagnosticSource 9.0.0</text></g><!--entity System.Threading.Channels 9.0.0--><g id="elem_System.Threading.Channels 9.0.0"><rect fill="#F1F1F1" height="47.6094" rx="2.5" ry="2.5" style="stroke:#181818;stroke-width:0.5;" width="251.6748" x="491" y="115"/><rect fill="#F1F1F1" height="10" style="stroke:#181818;stroke-width:0.5;" width="15" x="722.6748" y="120"/><rect fill="#F1F1F1" height="2" style="stroke:#181818;stroke-width:0.5;" width="4" x="720.6748" y="122"/><rect fill="#F1F1F1" height="2" style="stroke:#181818;stroke-width:0.5;" width="4" x="720.6748" y="126"/><text fill="#000000" font-family="sans-serif" font-size="14" lengthAdjust="spacing" textLength="211.6748" x="506" y="149.5332">System.Threading.Channels 9.0.0</text></g><!--entity System.Memory 4.6.0--><g id="elem_System.Memory 4.6.0"><rect fill="#F1F1F1" height="47.6094" rx="2.5" ry="2.5" style="stroke:#181818;stroke-width:0.5;" width="176.1514" x="252" y="331"/><rect fill="#F1F1F1" height="10" style="stroke:#181818;stroke-width:0.5;" width="15" x="408.1514" y="336"/><rect fill="#F1F1F1" height="2" style="stroke:#181818;stroke-width:0.5;" width="4" x="406.1514" y="338"/><rect fill="#F1F1F1" height="2" style="stroke:#181818;stroke-width:0.5;" width="4" x="406.1514" y="342"/><text fill="#000000" font-family="sans-serif" font-size="14" lengthAdjust="spacing" textLength="136.1514" x="267" y="365.5332">System.Memory 4.6.0</text></g><!--entity System.Runtime.CompilerServices.Unsafe 7.0.0-preview.2.22152.2--><g id="elem_System.Runtime.CompilerServices.Unsafe 7.0.0-preview.2.22152.2"><rect fill="#F1F1F1" height="47.6094" rx="2.5" ry="2.5" style="stroke:#181818;stroke-width:0.5;" width="458.6328" x="483.5" y="439"/><rect fill="#F1F1F1" height="10" style="stroke:#181818;stroke-width:0.5;" width="15" x="922.1328" y="444"/><rect fill="#F1F1F1" height="2" style="stroke:#181818;stroke-width:0.5;" width="4" x="920.1328" y="446"/><rect fill="#F1F1F1" height="2" style="stroke:#181818;stroke-width:0.5;" width="4" x="920.1328" y="450"/><text fill="#000000" font-family="sans-serif" font-size="14" lengthAdjust="spacing" textLength="418.6328" x="498.5" y="473.5332">System.Runtime.CompilerServices.Unsafe 7.0.0-preview.2.22152.2</text></g><!--entity System.Buffers 4.6.0--><g id="elem_System.Buffers 4.6.0"><rect fill="#F1F1F1" height="47.6094" rx="2.5" ry="2.5" style="stroke:#181818;stroke-width:0.5;" width="169.9443" x="7" y="439"/><rect fill="#F1F1F1" height="10" style="stroke:#181818;stroke-width:0.5;" width="15" x="156.9443" y="444"/><rect fill="#F1F1F1" height="2" style="stroke:#181818;stroke-width:0.5;" width="4" x="154.9443" y="446"/><rect fill="#F1F1F1" height="2" style="stroke:#181818;stroke-width:0.5;" width="4" x="154.9443" y="450"/><text fill="#000000" font-family="sans-serif" font-size="14" lengthAdjust="spacing" textLength="129.9443" x="22" y="473.5332">System.Buffers 4.6.0</text></g><!--entity System.Numerics.Vectors 4.6.0--><g id="elem_System.Numerics.Vectors 4.6.0"><rect fill="#F1F1F1" height="47.6094" rx="2.5" ry="2.5" style="stroke:#181818;stroke-width:0.5;" width="236.0615" x="212" y="439"/><rect fill="#F1F1F1" height="10" style="stroke:#181818;stroke-width:0.5;" width="15" x="428.0615" y="444"/><rect fill="#F1F1F1" height="2" style="stroke:#181818;stroke-width:0.5;" width="4" x="426.0615" y="446"/><rect fill="#F1F1F1" height="2" style="stroke:#181818;stroke-width:0.5;" width="4" x="426.0615" y="450"/><text fill="#000000" font-family="sans-serif" font-size="14" lengthAdjust="spacing" textLength="196.0615" x="227" y="473.5332">System.Numerics.Vectors 4.6.0</text></g><!--entity Microsoft.Bcl.AsyncInterfaces 9.0.0--><g id="elem_Microsoft.Bcl.AsyncInterfaces 9.0.0"><rect fill="#F1F1F1" height="47.6094" rx="2.5" ry="2.5" style="stroke:#181818;stroke-width:0.5;" width="258.6406" x="670.5" y="223"/><rect fill="#F1F1F1" height="10" style="stroke:#181818;stroke-width:0.5;" width="15" x="909.1406" y="228"/><rect fill="#F1F1F1" height="2" style="stroke:#181818;stroke-width:0.5;" width="4" x="907.1406" y="230"/><rect fill="#F1F1F1" height="2" style="stroke:#181818;stroke-width:0.5;" width="4" x="907.1406" y="234"/><text fill="#000000" font-family="sans-serif" font-size="14" lengthAdjust="spacing" textLength="218.6406" x="685.5" y="257.5332">Microsoft.Bcl.AsyncInterfaces 9.0.0</text></g><!--entity System.Threading.Tasks.Extensions 4.6.0--><g id="elem_System.Threading.Tasks.Extensions 4.6.0"><rect fill="#F1F1F1" height="47.6094" rx="2.5" ry="2.5" style="stroke:#181818;stroke-width:0.5;" width="302.2334" x="562" y="331"/><rect fill="#F1F1F1" height="10" style="stroke:#181818;stroke-width:0.5;" width="15" x="844.2334" y="336"/><rect fill="#F1F1F1" height="2" style="stroke:#181818;stroke-width:0.5;" width="4" x="842.2334" y="338"/><rect fill="#F1F1F1" height="2" style="stroke:#181818;stroke-width:0.5;" width="4" x="842.2334" y="342"/><text fill="#000000" font-family="sans-serif" font-size="14" lengthAdjust="spacing" textLength="262.2334" x="577" y="365.5332">System.Threading.Tasks.Extensions 4.6.0</text></g><!--link serilog 4.2.0-dev-02332 to System.Diagnostics.DiagnosticSource 9.0.0--><g id="link_serilog 4.2.0-dev-02332_System.Diagnostics.DiagnosticSource 9.0.0"><path d="M500.67,55.31 C480.67,96.47 441.9333,176.1839 421.9333,217.3239 " fill="none" id="serilog 4.2.0-dev-02332-to-System.Diagnostics.DiagnosticSource 9.0.0" style="stroke:#181818;stroke-width:1.0;"/><polygon fill="#181818" points="419.31,222.72,426.8424,216.3747,421.4961,218.2232,419.6475,212.8769,419.31,222.72" style="stroke:#181818;stroke-width:1.0;"/></g><!--link serilog 4.2.0-dev-02332 to System.Threading.Channels 9.0.0--><g id="link_serilog 4.2.0-dev-02332_System.Threading.Channels 9.0.0"><path d="M534.78,55 C552.27,72.66 572.1078,92.677 589.6778,110.417 " fill="none" id="serilog 4.2.0-dev-02332-to-System.Threading.Channels 9.0.0" style="stroke:#181818;stroke-width:1.0;"/><polygon fill="#181818" points="593.9,114.68,590.4088,105.4707,590.3815,111.1275,584.7247,111.1003,593.9,114.68" style="stroke:#181818;stroke-width:1.0;"/></g><!--link System.Diagnostics.DiagnosticSource 9.0.0 to System.Memory 4.6.0--><g id="link_System.Diagnostics.DiagnosticSource 9.0.0_System.Memory 4.6.0"><path d="M393.25,271 C381.92,288.66 369.5797,307.8898 358.1997,325.6298 " fill="none" id="System.Diagnostics.DiagnosticSource 9.0.0-to-System.Memory 4.6.0" style="stroke:#181818;stroke-width:1.0;"/><polygon fill="#181818" points="354.96,330.68,363.1863,325.2644,357.6597,326.4715,356.4527,320.9449,354.96,330.68" style="stroke:#181818;stroke-width:1.0;"/></g><!--link System.Diagnostics.DiagnosticSource 9.0.0 to System.Runtime.CompilerServices.Unsafe 7.0.0-preview.2.22152.2--><g id="link_System.Diagnostics.DiagnosticSource 9.0.0_System.Runtime.CompilerServices.Unsafe 7.0.0-preview.2.22152.2"><path d="M427.84,271.09 C452.84,299.18 498.1,346.81 544,379 C578.52,403.21 615.6712,421.6994 649.4812,436.4594 " fill="none" id="System.Diagnostics.DiagnosticSource 9.0.0-to-System.Runtime.CompilerServices.Unsafe 7.0.0-preview.2.22152.2" style="stroke:#181818;stroke-width:1.0;"/><polygon fill="#181818" points="654.98,438.86,648.3321,431.5933,650.3976,436.8595,645.1314,438.9251,654.98,438.86" style="stroke:#181818;stroke-width:1.0;"/></g><!--link System.Memory 4.6.0 to System.Buffers 4.6.0--><g id="link_System.Memory 4.6.0_System.Buffers 4.6.0"><path d="M286.19,379 C244.73,396.72 193.1874,418.7524 151.6474,436.5024 " fill="none" id="System.Memory 4.6.0-to-System.Buffers 4.6.0" style="stroke:#181818;stroke-width:1.0;"/><polygon fill="#181818" points="146.13,438.86,155.9778,439.0019,150.7278,436.8953,152.8344,431.6454,146.13,438.86" style="stroke:#181818;stroke-width:1.0;"/></g><!--link System.Memory 4.6.0 to System.Numerics.Vectors 4.6.0--><g id="link_System.Memory 4.6.0_System.Numerics.Vectors 4.6.0"><path d="M337.83,379 C336.16,396.66 334.4323,414.9664 332.7623,432.7064 " fill="none" id="System.Memory 4.6.0-to-System.Numerics.Vectors 4.6.0" style="stroke:#181818;stroke-width:1.0;"/><polygon fill="#181818" points="332.2,438.68,337.0259,430.0945,332.6686,433.702,329.0611,429.3447,332.2,438.68" style="stroke:#181818;stroke-width:1.0;"/></g><!--link System.Memory 4.6.0 to System.Runtime.CompilerServices.Unsafe 7.0.0-preview.2.22152.2--><g id="link_System.Memory 4.6.0_System.Runtime.CompilerServices.Unsafe 7.0.0-preview.2.22152.2"><path d="M420.94,379 C483.39,396.75 563.6285,419.55 626.1285,437.31 " fill="none" id="System.Memory 4.6.0-to-System.Runtime.CompilerServices.Unsafe 7.0.0-preview.2.22152.2" style="stroke:#181818;stroke-width:1.0;"/><polygon fill="#181818" points="631.9,438.95,624.3361,432.6423,627.0904,437.5833,622.1494,440.3376,631.9,438.95" style="stroke:#181818;stroke-width:1.0;"/></g><!--link System.Threading.Channels 9.0.0 to Microsoft.Bcl.AsyncInterfaces 9.0.0--><g id="link_System.Threading.Channels 9.0.0_Microsoft.Bcl.AsyncInterfaces 9.0.0"><path d="M656.71,163 C687.3,180.72 724.2078,202.1031 754.8578,219.8531 " fill="none" id="System.Threading.Channels 9.0.0-to-Microsoft.Bcl.AsyncInterfaces 9.0.0" style="stroke:#181818;stroke-width:1.0;"/><polygon fill="#181818" points="760.05,222.86,754.2663,214.8882,755.7232,220.3543,750.2572,221.8111,760.05,222.86" style="stroke:#181818;stroke-width:1.0;"/></g><!--link System.Threading.Channels 9.0.0 to System.Threading.Tasks.Extensions 4.6.0--><g id="link_System.Threading.Channels 9.0.0_System.Threading.Tasks.Extensions 4.6.0"><path d="M620.76,163.13 C625.72,190.02 635.87,235.27 653,271 C663.45,292.81 675.936,310.2218 688.906,326.1118 " fill="none" id="System.Threading.Channels 9.0.0-to-System.Threading.Tasks.Extensions 4.6.0" style="stroke:#181818;stroke-width:1.0;"/><polygon fill="#181818" points="692.7,330.76,690.1078,321.2584,689.5383,326.8865,683.9102,326.3171,692.7,330.76" style="stroke:#181818;stroke-width:1.0;"/></g><!--link Microsoft.Bcl.AsyncInterfaces 9.0.0 to System.Threading.Tasks.Extensions 4.6.0--><g id="link_Microsoft.Bcl.AsyncInterfaces 9.0.0_System.Threading.Tasks.Extensions 4.6.0"><path d="M781.12,271 C766.63,288.66 750.5065,308.3021 735.9465,326.0421 " fill="none" id="Microsoft.Bcl.AsyncInterfaces 9.0.0-to-System.Threading.Tasks.Extensions 4.6.0" style="stroke:#181818;stroke-width:1.0;"/><polygon fill="#181818" points="732.14,330.68,740.9418,326.2608,735.3121,326.8151,734.7579,321.1854,732.14,330.68" style="stroke:#181818;stroke-width:1.0;"/></g><!--link System.Threading.Tasks.Extensions 4.6.0 to System.Runtime.CompilerServices.Unsafe 7.0.0-preview.2.22152.2--><g id="link_System.Threading.Tasks.Extensions 4.6.0_System.Runtime.CompilerServices.Unsafe 7.0.0-preview.2.22152.2"><path d="M713,379 C713,396.66 713,414.94 713,432.68 " fill="none" id="System.Threading.Tasks.Extensions 4.6.0-to-System.Runtime.CompilerServices.Unsafe 7.0.0-preview.2.22152.2" style="stroke:#181818;stroke-width:1.0;"/><polygon fill="#181818" points="713,438.68,717,429.68,713,433.68,709,429.68,713,438.68" style="stroke:#181818;stroke-width:1.0;"/></g><!--SRC=[hP7DJiCm48JlF8LVmAlWyYCkIBHmu50Ef729Uh3STMeHszMk4yZROuH4IL55glPY-R3ppSnknKYkYRMu00M5N64d2pMPgAMGybPKPSy9FTmxNOV8oHd-zIzZImR53HHGBC-gKQJ5cb2lNAXXjjOXOCC_-l5U0-8SVQG-kruTGtbkGt8UOHRznZL89LBd33Ay1DOMnVMNH6u8EuVlkQ1IvvVvtHeEOWpGqzPQ9DvDk5_mrFgyoXpy5KsAXoYFRh7tFDysSsSeShG9fgQ1E-w3UGm9oUfiidl8VrX_fXQQtnWUFX86TZ5iQuznFPGvTl8aw_q4]--></g></svg>