<svg xmlns="http://www.w3.org/2000/svg" xmlns:xlink="http://www.w3.org/1999/xlink" contentStyleType="text/css" height="384px" preserveAspectRatio="none" style="width:6698px;height:384px;background:#FFFFFF;" version="1.1" viewBox="0 0 6698 384" width="6698px" zoomAndPan="magnify"><defs/><g><!--entity newtonsoft.json 13.0.3--><g id="elem_newtonsoft.json 13.0.3"><rect fill="#F1F1F1" height="47.6094" rx="2.5" ry="2.5" style="stroke:#181818;stroke-width:0.5;" width="180.0957" x="3858" y="7"/><rect fill="#F1F1F1" height="10" style="stroke:#181818;stroke-width:0.5;" width="15" x="4018.0957" y="12"/><rect fill="#F1F1F1" height="2" style="stroke:#181818;stroke-width:0.5;" width="4" x="4016.0957" y="14"/><rect fill="#F1F1F1" height="2" style="stroke:#181818;stroke-width:0.5;" width="4" x="4016.0957" y="18"/><text fill="#000000" font-family="sans-serif" font-size="14" lengthAdjust="spacing" textLength="140.0957" x="3873" y="41.5332">newtonsoft.json 13.0.3</text></g><!--entity Microsoft.CSharp 4.7.0--><g id="elem_Microsoft.CSharp 4.7.0"><rect fill="#F1F1F1" height="47.6094" rx="2.5" ry="2.5" style="stroke:#181818;stroke-width:0.5;" width="183.1719" x="3784.5" y="115"/><rect fill="#F1F1F1" height="10" style="stroke:#181818;stroke-width:0.5;" width="15" x="3947.6719" y="120"/><rect fill="#F1F1F1" height="2" style="stroke:#181818;stroke-width:0.5;" width="4" x="3945.6719" y="122"/><rect fill="#F1F1F1" height="2" style="stroke:#181818;stroke-width:0.5;" width="4" x="3945.6719" y="126"/><text fill="#000000" font-family="sans-serif" font-size="14" lengthAdjust="spacing" textLength="143.1719" x="3799.5" y="149.5332">Microsoft.CSharp 4.7.0</text></g><!--entity NETStandard.Library 2.0.3--><g id="elem_NETStandard.Library 2.0.3"><rect fill="#F1F1F1" height="47.6094" rx="2.5" ry="2.5" style="stroke:#181818;stroke-width:0.5;" width="206.5303" x="3377.5" y="223"/><rect fill="#F1F1F1" height="10" style="stroke:#181818;stroke-width:0.5;" width="15" x="3564.0303" y="228"/><rect fill="#F1F1F1" height="2" style="stroke:#181818;stroke-width:0.5;" width="4" x="3562.0303" y="230"/><rect fill="#F1F1F1" height="2" style="stroke:#181818;stroke-width:0.5;" width="4" x="3562.0303" y="234"/><text fill="#000000" font-family="sans-serif" font-size="14" lengthAdjust="spacing" textLength="166.5303" x="3392.5" y="257.5332">NETStandard.Library 2.0.3</text></g><!--entity System.ComponentModel.TypeConverter 4.3.0--><g id="elem_System.ComponentModel.TypeConverter 4.3.0"><rect fill="#F1F1F1" height="47.6094" rx="2.5" ry="2.5" style="stroke:#181818;stroke-width:0.5;" width="332.585" x="4968.5" y="223"/><rect fill="#F1F1F1" height="10" style="stroke:#181818;stroke-width:0.5;" width="15" x="5281.085" y="228"/><rect fill="#F1F1F1" height="2" style="stroke:#181818;stroke-width:0.5;" width="4" x="5279.085" y="230"/><rect fill="#F1F1F1" height="2" style="stroke:#181818;stroke-width:0.5;" width="4" x="5279.085" y="234"/><text fill="#000000" font-family="sans-serif" font-size="14" lengthAdjust="spacing" textLength="292.585" x="4983.5" y="257.5332">System.ComponentModel.TypeConverter 4.3.0</text></g><!--entity System.Runtime.Serialization.Primitives 4.3.0--><g id="elem_System.Runtime.Serialization.Primitives 4.3.0"><rect fill="#F1F1F1" height="47.6094" rx="2.5" ry="2.5" style="stroke:#181818;stroke-width:0.5;" width="322.4336" x="4897" y="115"/><rect fill="#F1F1F1" height="10" style="stroke:#181818;stroke-width:0.5;" width="15" x="5199.4336" y="120"/><rect fill="#F1F1F1" height="2" style="stroke:#181818;stroke-width:0.5;" width="4" x="5197.4336" y="122"/><rect fill="#F1F1F1" height="2" style="stroke:#181818;stroke-width:0.5;" width="4" x="5197.4336" y="126"/><text fill="#000000" font-family="sans-serif" font-size="14" lengthAdjust="spacing" textLength="282.4336" x="4912" y="149.5332">System.Runtime.Serialization.Primitives 4.3.0</text></g><!--entity System.Dynamic.Runtime 4.3.0--><g id="elem_System.Dynamic.Runtime 4.3.0"><rect fill="#F1F1F1" height="47.6094" rx="2.5" ry="2.5" style="stroke:#181818;stroke-width:0.5;" width="236.0684" x="3758" y="223"/><rect fill="#F1F1F1" height="10" style="stroke:#181818;stroke-width:0.5;" width="15" x="3974.0684" y="228"/><rect fill="#F1F1F1" height="2" style="stroke:#181818;stroke-width:0.5;" width="4" x="3972.0684" y="230"/><rect fill="#F1F1F1" height="2" style="stroke:#181818;stroke-width:0.5;" width="4" x="3972.0684" y="234"/><text fill="#000000" font-family="sans-serif" font-size="14" lengthAdjust="spacing" textLength="196.0684" x="3773" y="257.5332">System.Dynamic.Runtime 4.3.0</text></g><!--entity Microsoft.NETCore.Platforms 8.0.0-preview.7.23375.6--><g id="elem_Microsoft.NETCore.Platforms 8.0.0-preview.7.23375.6"><rect fill="#F1F1F1" height="47.6094" rx="2.5" ry="2.5" style="stroke:#181818;stroke-width:0.5;" width="376.1367" x="2450" y="331"/><rect fill="#F1F1F1" height="10" style="stroke:#181818;stroke-width:0.5;" width="15" x="2806.1367" y="336"/><rect fill="#F1F1F1" height="2" style="stroke:#181818;stroke-width:0.5;" width="4" x="2804.1367" y="338"/><rect fill="#F1F1F1" height="2" style="stroke:#181818;stroke-width:0.5;" width="4" x="2804.1367" y="342"/><text fill="#000000" font-family="sans-serif" font-size="14" lengthAdjust="spacing" textLength="336.1367" x="2465" y="365.5332">Microsoft.NETCore.Platforms 8.0.0-preview.7.23375.6</text></g><!--entity System.Collections 4.3.0--><g id="elem_System.Collections 4.3.0"><rect fill="#F1F1F1" height="47.6094" rx="2.5" ry="2.5" style="stroke:#181818;stroke-width:0.5;" width="194.0684" x="5678" y="331"/><rect fill="#F1F1F1" height="10" style="stroke:#181818;stroke-width:0.5;" width="15" x="5852.0684" y="336"/><rect fill="#F1F1F1" height="2" style="stroke:#181818;stroke-width:0.5;" width="4" x="5850.0684" y="338"/><rect fill="#F1F1F1" height="2" style="stroke:#181818;stroke-width:0.5;" width="4" x="5850.0684" y="342"/><text fill="#000000" font-family="sans-serif" font-size="14" lengthAdjust="spacing" textLength="154.0684" x="5693" y="365.5332">System.Collections 4.3.0</text></g><!--entity System.Diagnostics.Debug 4.3.0--><g id="elem_System.Diagnostics.Debug 4.3.0"><rect fill="#F1F1F1" height="47.6094" rx="2.5" ry="2.5" style="stroke:#181818;stroke-width:0.5;" width="243.1025" x="2861.5" y="331"/><rect fill="#F1F1F1" height="10" style="stroke:#181818;stroke-width:0.5;" width="15" x="3084.6025" y="336"/><rect fill="#F1F1F1" height="2" style="stroke:#181818;stroke-width:0.5;" width="4" x="3082.6025" y="338"/><rect fill="#F1F1F1" height="2" style="stroke:#181818;stroke-width:0.5;" width="4" x="3082.6025" y="342"/><text fill="#000000" font-family="sans-serif" font-size="14" lengthAdjust="spacing" textLength="203.1025" x="2876.5" y="365.5332">System.Diagnostics.Debug 4.3.0</text></g><!--entity System.Diagnostics.Tools 4.3.0--><g id="elem_System.Diagnostics.Tools 4.3.0"><rect fill="#F1F1F1" height="47.6094" rx="2.5" ry="2.5" style="stroke:#181818;stroke-width:0.5;" width="236.082" x="3140" y="331"/><rect fill="#F1F1F1" height="10" style="stroke:#181818;stroke-width:0.5;" width="15" x="3356.082" y="336"/><rect fill="#F1F1F1" height="2" style="stroke:#181818;stroke-width:0.5;" width="4" x="3354.082" y="338"/><rect fill="#F1F1F1" height="2" style="stroke:#181818;stroke-width:0.5;" width="4" x="3354.082" y="342"/><text fill="#000000" font-family="sans-serif" font-size="14" lengthAdjust="spacing" textLength="196.082" x="3155" y="365.5332">System.Diagnostics.Tools 4.3.0</text></g><!--entity System.Globalization 4.3.0--><g id="elem_System.Globalization 4.3.0"><rect fill="#F1F1F1" height="47.6094" rx="2.5" ry="2.5" style="stroke:#181818;stroke-width:0.5;" width="206.5303" x="3773.5" y="331"/><rect fill="#F1F1F1" height="10" style="stroke:#181818;stroke-width:0.5;" width="15" x="3960.0303" y="336"/><rect fill="#F1F1F1" height="2" style="stroke:#181818;stroke-width:0.5;" width="4" x="3958.0303" y="338"/><rect fill="#F1F1F1" height="2" style="stroke:#181818;stroke-width:0.5;" width="4" x="3958.0303" y="342"/><text fill="#000000" font-family="sans-serif" font-size="14" lengthAdjust="spacing" textLength="166.5303" x="3788.5" y="365.5332">System.Globalization 4.3.0</text></g><!--entity System.IO 4.3.0--><g id="elem_System.IO 4.3.0"><rect fill="#F1F1F1" height="47.6094" rx="2.5" ry="2.5" style="stroke:#181818;stroke-width:0.5;" width="140.3721" x="3411" y="331"/><rect fill="#F1F1F1" height="10" style="stroke:#181818;stroke-width:0.5;" width="15" x="3531.3721" y="336"/><rect fill="#F1F1F1" height="2" style="stroke:#181818;stroke-width:0.5;" width="4" x="3529.3721" y="338"/><rect fill="#F1F1F1" height="2" style="stroke:#181818;stroke-width:0.5;" width="4" x="3529.3721" y="342"/><text fill="#000000" font-family="sans-serif" font-size="14" lengthAdjust="spacing" textLength="100.3721" x="3426" y="365.5332">System.IO 4.3.0</text></g><!--entity System.Linq 4.3.0--><g id="elem_System.Linq 4.3.0"><rect fill="#F1F1F1" height="47.6094" rx="2.5" ry="2.5" style="stroke:#181818;stroke-width:0.5;" width="152.0615" x="3586" y="331"/><rect fill="#F1F1F1" height="10" style="stroke:#181818;stroke-width:0.5;" width="15" x="3718.0615" y="336"/><rect fill="#F1F1F1" height="2" style="stroke:#181818;stroke-width:0.5;" width="4" x="3716.0615" y="338"/><rect fill="#F1F1F1" height="2" style="stroke:#181818;stroke-width:0.5;" width="4" x="3716.0615" y="342"/><text fill="#000000" font-family="sans-serif" font-size="14" lengthAdjust="spacing" textLength="112.0615" x="3601" y="365.5332">System.Linq 4.3.0</text></g><!--entity System.Linq.Expressions 4.3.0--><g id="elem_System.Linq.Expressions 4.3.0"><rect fill="#F1F1F1" height="47.6094" rx="2.5" ry="2.5" style="stroke:#181818;stroke-width:0.5;" width="232.2061" x="7" y="331"/><rect fill="#F1F1F1" height="10" style="stroke:#181818;stroke-width:0.5;" width="15" x="219.2061" y="336"/><rect fill="#F1F1F1" height="2" style="stroke:#181818;stroke-width:0.5;" width="4" x="217.2061" y="338"/><rect fill="#F1F1F1" height="2" style="stroke:#181818;stroke-width:0.5;" width="4" x="217.2061" y="342"/><text fill="#000000" font-family="sans-serif" font-size="14" lengthAdjust="spacing" textLength="192.2061" x="22" y="365.5332">System.Linq.Expressions 4.3.0</text></g><!--entity System.Net.Primitives 4.3.1--><g id="elem_System.Net.Primitives 4.3.1"><rect fill="#F1F1F1" height="47.6094" rx="2.5" ry="2.5" style="stroke:#181818;stroke-width:0.5;" width="211.9375" x="274" y="331"/><rect fill="#F1F1F1" height="10" style="stroke:#181818;stroke-width:0.5;" width="15" x="465.9375" y="336"/><rect fill="#F1F1F1" height="2" style="stroke:#181818;stroke-width:0.5;" width="4" x="463.9375" y="338"/><rect fill="#F1F1F1" height="2" style="stroke:#181818;stroke-width:0.5;" width="4" x="463.9375" y="342"/><text fill="#000000" font-family="sans-serif" font-size="14" lengthAdjust="spacing" textLength="171.9375" x="289" y="365.5332">System.Net.Primitives 4.3.1</text></g><!--entity System.ObjectModel 4.3.0--><g id="elem_System.ObjectModel 4.3.0"><rect fill="#F1F1F1" height="47.6094" rx="2.5" ry="2.5" style="stroke:#181818;stroke-width:0.5;" width="204.1855" x="521" y="331"/><rect fill="#F1F1F1" height="10" style="stroke:#181818;stroke-width:0.5;" width="15" x="705.1855" y="336"/><rect fill="#F1F1F1" height="2" style="stroke:#181818;stroke-width:0.5;" width="4" x="703.1855" y="338"/><rect fill="#F1F1F1" height="2" style="stroke:#181818;stroke-width:0.5;" width="4" x="703.1855" y="342"/><text fill="#000000" font-family="sans-serif" font-size="14" lengthAdjust="spacing" textLength="164.1855" x="536" y="365.5332">System.ObjectModel 4.3.0</text></g><!--entity System.Reflection 4.3.0--><g id="elem_System.Reflection 4.3.0"><rect fill="#F1F1F1" height="47.6094" rx="2.5" ry="2.5" style="stroke:#181818;stroke-width:0.5;" width="187.8477" x="4016" y="331"/><rect fill="#F1F1F1" height="10" style="stroke:#181818;stroke-width:0.5;" width="15" x="4183.8477" y="336"/><rect fill="#F1F1F1" height="2" style="stroke:#181818;stroke-width:0.5;" width="4" x="4181.8477" y="338"/><rect fill="#F1F1F1" height="2" style="stroke:#181818;stroke-width:0.5;" width="4" x="4181.8477" y="342"/><text fill="#000000" font-family="sans-serif" font-size="14" lengthAdjust="spacing" textLength="147.8477" x="4031" y="365.5332">System.Reflection 4.3.0</text></g><!--entity System.Reflection.Extensions 4.3.0--><g id="elem_System.Reflection.Extensions 4.3.0"><rect fill="#F1F1F1" height="47.6094" rx="2.5" ry="2.5" style="stroke:#181818;stroke-width:0.5;" width="260.2197" x="4239" y="331"/><rect fill="#F1F1F1" height="10" style="stroke:#181818;stroke-width:0.5;" width="15" x="4479.2197" y="336"/><rect fill="#F1F1F1" height="2" style="stroke:#181818;stroke-width:0.5;" width="4" x="4477.2197" y="338"/><rect fill="#F1F1F1" height="2" style="stroke:#181818;stroke-width:0.5;" width="4" x="4477.2197" y="342"/><text fill="#000000" font-family="sans-serif" font-size="14" lengthAdjust="spacing" textLength="220.2197" x="4254" y="365.5332">System.Reflection.Extensions 4.3.0</text></g><!--entity System.Reflection.Primitives 4.3.0--><g id="elem_System.Reflection.Primitives 4.3.0"><rect fill="#F1F1F1" height="47.6094" rx="2.5" ry="2.5" style="stroke:#181818;stroke-width:0.5;" width="252.4063" x="4534" y="331"/><rect fill="#F1F1F1" height="10" style="stroke:#181818;stroke-width:0.5;" width="15" x="4766.4063" y="336"/><rect fill="#F1F1F1" height="2" style="stroke:#181818;stroke-width:0.5;" width="4" x="4764.4063" y="338"/><rect fill="#F1F1F1" height="2" style="stroke:#181818;stroke-width:0.5;" width="4" x="4764.4063" y="342"/><text fill="#000000" font-family="sans-serif" font-size="14" lengthAdjust="spacing" textLength="212.4063" x="4549" y="365.5332">System.Reflection.Primitives 4.3.0</text></g><!--entity System.Resources.ResourceManager 4.3.0--><g id="elem_System.Resources.ResourceManager 4.3.0"><rect fill="#F1F1F1" height="47.6094" rx="2.5" ry="2.5" style="stroke:#181818;stroke-width:0.5;" width="311.5713" x="4821" y="331"/><rect fill="#F1F1F1" height="10" style="stroke:#181818;stroke-width:0.5;" width="15" x="5112.5713" y="336"/><rect fill="#F1F1F1" height="2" style="stroke:#181818;stroke-width:0.5;" width="4" x="5110.5713" y="338"/><rect fill="#F1F1F1" height="2" style="stroke:#181818;stroke-width:0.5;" width="4" x="5110.5713" y="342"/><text fill="#000000" font-family="sans-serif" font-size="14" lengthAdjust="spacing" textLength="271.5713" x="4836" y="365.5332">System.Resources.ResourceManager 4.3.0</text></g><!--entity System.Runtime 4.3.1--><g id="elem_System.Runtime 4.3.1"><rect fill="#F1F1F1" height="47.6094" rx="2.5" ry="2.5" style="stroke:#181818;stroke-width:0.5;" width="177.7236" x="5907" y="331"/><rect fill="#F1F1F1" height="10" style="stroke:#181818;stroke-width:0.5;" width="15" x="6064.7236" y="336"/><rect fill="#F1F1F1" height="2" style="stroke:#181818;stroke-width:0.5;" width="4" x="6062.7236" y="338"/><rect fill="#F1F1F1" height="2" style="stroke:#181818;stroke-width:0.5;" width="4" x="6062.7236" y="342"/><text fill="#000000" font-family="sans-serif" font-size="14" lengthAdjust="spacing" textLength="137.7236" x="5922" y="365.5332">System.Runtime 4.3.1</text></g><!--entity System.Runtime.Extensions 4.3.1--><g id="elem_System.Runtime.Extensions 4.3.1"><rect fill="#F1F1F1" height="47.6094" rx="2.5" ry="2.5" style="stroke:#181818;stroke-width:0.5;" width="250.0957" x="5168" y="331"/><rect fill="#F1F1F1" height="10" style="stroke:#181818;stroke-width:0.5;" width="15" x="5398.0957" y="336"/><rect fill="#F1F1F1" height="2" style="stroke:#181818;stroke-width:0.5;" width="4" x="5396.0957" y="338"/><rect fill="#F1F1F1" height="2" style="stroke:#181818;stroke-width:0.5;" width="4" x="5396.0957" y="342"/><text fill="#000000" font-family="sans-serif" font-size="14" lengthAdjust="spacing" textLength="210.0957" x="5183" y="365.5332">System.Runtime.Extensions 4.3.1</text></g><!--entity System.Text.Encoding 4.3.0--><g id="elem_System.Text.Encoding 4.3.0"><rect fill="#F1F1F1" height="47.6094" rx="2.5" ry="2.5" style="stroke:#181818;stroke-width:0.5;" width="215.0889" x="760.5" y="331"/><rect fill="#F1F1F1" height="10" style="stroke:#181818;stroke-width:0.5;" width="15" x="955.5889" y="336"/><rect fill="#F1F1F1" height="2" style="stroke:#181818;stroke-width:0.5;" width="4" x="953.5889" y="338"/><rect fill="#F1F1F1" height="2" style="stroke:#181818;stroke-width:0.5;" width="4" x="953.5889" y="342"/><text fill="#000000" font-family="sans-serif" font-size="14" lengthAdjust="spacing" textLength="175.0889" x="775.5" y="365.5332">System.Text.Encoding 4.3.0</text></g><!--entity System.Text.Encoding.Extensions 4.3.0--><g id="elem_System.Text.Encoding.Extensions 4.3.0"><rect fill="#F1F1F1" height="47.6094" rx="2.5" ry="2.5" style="stroke:#181818;stroke-width:0.5;" width="287.4609" x="1010.5" y="331"/><rect fill="#F1F1F1" height="10" style="stroke:#181818;stroke-width:0.5;" width="15" x="1277.9609" y="336"/><rect fill="#F1F1F1" height="2" style="stroke:#181818;stroke-width:0.5;" width="4" x="1275.9609" y="338"/><rect fill="#F1F1F1" height="2" style="stroke:#181818;stroke-width:0.5;" width="4" x="1275.9609" y="342"/><text fill="#000000" font-family="sans-serif" font-size="14" lengthAdjust="spacing" textLength="247.4609" x="1025.5" y="365.5332">System.Text.Encoding.Extensions 4.3.0</text></g><!--entity System.Text.RegularExpressions 4.3.1--><g id="elem_System.Text.RegularExpressions 4.3.1"><rect fill="#F1F1F1" height="47.6094" rx="2.5" ry="2.5" style="stroke:#181818;stroke-width:0.5;" width="281.9922" x="1333" y="331"/><rect fill="#F1F1F1" height="10" style="stroke:#181818;stroke-width:0.5;" width="15" x="1594.9922" y="336"/><rect fill="#F1F1F1" height="2" style="stroke:#181818;stroke-width:0.5;" width="4" x="1592.9922" y="338"/><rect fill="#F1F1F1" height="2" style="stroke:#181818;stroke-width:0.5;" width="4" x="1592.9922" y="342"/><text fill="#000000" font-family="sans-serif" font-size="14" lengthAdjust="spacing" textLength="241.9922" x="1348" y="365.5332">System.Text.RegularExpressions 4.3.1</text></g><!--entity System.Threading 4.3.0--><g id="elem_System.Threading 4.3.0"><rect fill="#F1F1F1" height="47.6094" rx="2.5" ry="2.5" style="stroke:#181818;stroke-width:0.5;" width="188.6338" x="5453.5" y="331"/><rect fill="#F1F1F1" height="10" style="stroke:#181818;stroke-width:0.5;" width="15" x="5622.1338" y="336"/><rect fill="#F1F1F1" height="2" style="stroke:#181818;stroke-width:0.5;" width="4" x="5620.1338" y="338"/><rect fill="#F1F1F1" height="2" style="stroke:#181818;stroke-width:0.5;" width="4" x="5620.1338" y="342"/><text fill="#000000" font-family="sans-serif" font-size="14" lengthAdjust="spacing" textLength="148.6338" x="5468.5" y="365.5332">System.Threading 4.3.0</text></g><!--entity System.Threading.Tasks 4.3.0--><g id="elem_System.Threading.Tasks 4.3.0"><rect fill="#F1F1F1" height="47.6094" rx="2.5" ry="2.5" style="stroke:#181818;stroke-width:0.5;" width="229.8613" x="1650" y="331"/><rect fill="#F1F1F1" height="10" style="stroke:#181818;stroke-width:0.5;" width="15" x="1859.8613" y="336"/><rect fill="#F1F1F1" height="2" style="stroke:#181818;stroke-width:0.5;" width="4" x="1857.8613" y="338"/><rect fill="#F1F1F1" height="2" style="stroke:#181818;stroke-width:0.5;" width="4" x="1857.8613" y="342"/><text fill="#000000" font-family="sans-serif" font-size="14" lengthAdjust="spacing" textLength="189.8613" x="1665" y="365.5332">System.Threading.Tasks 4.3.0</text></g><!--entity System.Xml.ReaderWriter 4.3.1--><g id="elem_System.Xml.ReaderWriter 4.3.1"><rect fill="#F1F1F1" height="47.6094" rx="2.5" ry="2.5" style="stroke:#181818;stroke-width:0.5;" width="236.834" x="1915.5" y="331"/><rect fill="#F1F1F1" height="10" style="stroke:#181818;stroke-width:0.5;" width="15" x="2132.334" y="336"/><rect fill="#F1F1F1" height="2" style="stroke:#181818;stroke-width:0.5;" width="4" x="2130.334" y="338"/><rect fill="#F1F1F1" height="2" style="stroke:#181818;stroke-width:0.5;" width="4" x="2130.334" y="342"/><text fill="#000000" font-family="sans-serif" font-size="14" lengthAdjust="spacing" textLength="196.834" x="1930.5" y="365.5332">System.Xml.ReaderWriter 4.3.1</text></g><!--entity System.Xml.XDocument 4.3.0--><g id="elem_System.Xml.XDocument 4.3.0"><rect fill="#F1F1F1" height="47.6094" rx="2.5" ry="2.5" style="stroke:#181818;stroke-width:0.5;" width="226.7373" x="2187.5" y="331"/><rect fill="#F1F1F1" height="10" style="stroke:#181818;stroke-width:0.5;" width="15" x="2394.2373" y="336"/><rect fill="#F1F1F1" height="2" style="stroke:#181818;stroke-width:0.5;" width="4" x="2392.2373" y="338"/><rect fill="#F1F1F1" height="2" style="stroke:#181818;stroke-width:0.5;" width="4" x="2392.2373" y="342"/><text fill="#000000" font-family="sans-serif" font-size="14" lengthAdjust="spacing" textLength="186.7373" x="2202.5" y="365.5332">System.Xml.XDocument 4.3.0</text></g><!--entity System.ComponentModel 4.3.0--><g id="elem_System.ComponentModel 4.3.0"><rect fill="#F1F1F1" height="47.6094" rx="2.5" ry="2.5" style="stroke:#181818;stroke-width:0.5;" width="236.1025" x="6120" y="331"/><rect fill="#F1F1F1" height="10" style="stroke:#181818;stroke-width:0.5;" width="15" x="6336.1025" y="336"/><rect fill="#F1F1F1" height="2" style="stroke:#181818;stroke-width:0.5;" width="4" x="6334.1025" y="338"/><rect fill="#F1F1F1" height="2" style="stroke:#181818;stroke-width:0.5;" width="4" x="6334.1025" y="342"/><text fill="#000000" font-family="sans-serif" font-size="14" lengthAdjust="spacing" textLength="196.1025" x="6135" y="365.5332">System.ComponentModel 4.3.0</text></g><!--entity System.ComponentModel.Primitives 4.3.0--><g id="elem_System.ComponentModel.Primitives 4.3.0"><rect fill="#F1F1F1" height="47.6094" rx="2.5" ry="2.5" style="stroke:#181818;stroke-width:0.5;" width="300.6611" x="6391.5" y="331"/><rect fill="#F1F1F1" height="10" style="stroke:#181818;stroke-width:0.5;" width="15" x="6672.1611" y="336"/><rect fill="#F1F1F1" height="2" style="stroke:#181818;stroke-width:0.5;" width="4" x="6670.1611" y="338"/><rect fill="#F1F1F1" height="2" style="stroke:#181818;stroke-width:0.5;" width="4" x="6670.1611" y="342"/><text fill="#000000" font-family="sans-serif" font-size="14" lengthAdjust="spacing" textLength="260.6611" x="6406.5" y="365.5332">System.ComponentModel.Primitives 4.3.0</text></g><!--link newtonsoft.json 13.0.3 to Microsoft.CSharp 4.7.0--><g id="link_newtonsoft.json 13.0.3_Microsoft.CSharp 4.7.0"><path d="M3932.38,55 C3920.38,72.66 3907.2613,91.9767 3895.2113,109.7167 " fill="none" id="newtonsoft.json 13.0.3-to-Microsoft.CSharp 4.7.0" style="stroke:#181818;stroke-width:1.0;"/><polygon fill="#181818" points="3891.84,114.68,3900.2059,109.4826,3894.6494,110.5439,3893.5882,104.9875,3891.84,114.68" style="stroke:#181818;stroke-width:1.0;"/></g><!--link newtonsoft.json 13.0.3 to NETStandard.Library 2.0.3--><g id="link_newtonsoft.json 13.0.3_NETStandard.Library 2.0.3"><path d="M3897.58,55.11 C3807.72,96.28 3626.3746,179.3804 3536.6646,220.4904 " fill="none" id="newtonsoft.json 13.0.3-to-NETStandard.Library 2.0.3" style="stroke:#181818;stroke-width:1.0;"/><polygon fill="#181818" points="3531.21,222.99,3541.0582,222.877,3535.7555,220.907,3537.7254,215.6043,3531.21,222.99" style="stroke:#181818;stroke-width:1.0;"/></g><!--link newtonsoft.json 13.0.3 to System.ComponentModel.TypeConverter 4.3.0--><g id="link_newtonsoft.json 13.0.3_System.ComponentModel.TypeConverter 4.3.0"><path d="M4038.19,48.26 C4247.3,85.96 4759.8152,178.3553 5001.3952,221.9153 " fill="none" id="newtonsoft.json 13.0.3-to-System.ComponentModel.TypeConverter 4.3.0" style="stroke:#181818;stroke-width:1.0;"/><polygon fill="#181818" points="5007.3,222.98,4999.1526,217.4464,5002.3794,222.0927,4997.733,225.3195,5007.3,222.98" style="stroke:#181818;stroke-width:1.0;"/></g><!--link newtonsoft.json 13.0.3 to System.Runtime.Serialization.Primitives 4.3.0--><g id="link_newtonsoft.json 13.0.3_System.Runtime.Serialization.Primitives 4.3.0"><path d="M4038.37,40.63 C4226.02,58.55 4654.1372,99.4296 4890.9072,122.0396 " fill="none" id="newtonsoft.json 13.0.3-to-System.Runtime.Serialization.Primitives 4.3.0" style="stroke:#181818;stroke-width:1.0;"/><polygon fill="#181818" points="4896.88,122.61,4888.301,117.7726,4891.9026,122.1347,4887.5405,125.7363,4896.88,122.61" style="stroke:#181818;stroke-width:1.0;"/></g><!--link Microsoft.CSharp 4.7.0 to NETStandard.Library 2.0.3--><g id="link_Microsoft.CSharp 4.7.0_NETStandard.Library 2.0.3"><path d="M3790.29,163 C3724.15,180.75 3638.865,203.6351 3572.675,221.3951 " fill="none" id="Microsoft.CSharp 4.7.0-to-NETStandard.Library 2.0.3" style="stroke:#181818;stroke-width:1.0;"/><polygon fill="#181818" points="3566.88,222.95,3576.6091,224.481,3571.7092,221.6542,3574.5359,216.7543,3566.88,222.95" style="stroke:#181818;stroke-width:1.0;"/></g><!--link Microsoft.CSharp 4.7.0 to System.Dynamic.Runtime 4.3.0--><g id="link_Microsoft.CSharp 4.7.0_System.Dynamic.Runtime 4.3.0"><path d="M3876,163 C3876,180.66 3876,198.94 3876,216.68 " fill="none" id="Microsoft.CSharp 4.7.0-to-System.Dynamic.Runtime 4.3.0" style="stroke:#181818;stroke-width:1.0;"/><polygon fill="#181818" points="3876,222.68,3880,213.68,3876,217.68,3872,213.68,3876,222.68" style="stroke:#181818;stroke-width:1.0;"/></g><!--link NETStandard.Library 2.0.3 to Microsoft.NETCore.Platforms 8.0.0-preview.7.23375.6--><g id="link_NETStandard.Library 2.0.3_Microsoft.NETCore.Platforms 8.0.0-preview.7.23375.6"><path d="M3377.21,261.05 C3238.69,278.47 2997.0731,308.8514 2826.8831,330.2514 " fill="none" id="NETStandard.Library 2.0.3-to-Microsoft.NETCore.Platforms 8.0.0-preview.7.23375.6" style="stroke:#181818;stroke-width:1.0;"/><polygon fill="#181818" points="2820.93,331,2830.3587,333.8459,2825.8909,330.3762,2829.3606,325.9084,2820.93,331" style="stroke:#181818;stroke-width:1.0;"/></g><!--link NETStandard.Library 2.0.3 to System.Collections 4.3.0--><g id="link_NETStandard.Library 2.0.3_System.Collections 4.3.0"><path d="M3584.56,258.56 C3631.9,263.04 3688.74,267.93 3740,271 C4592.22,322.11 4811.82,233.61 5660,331 C5665.87,331.67 5665.9482,331.588 5671.9982,332.508 " fill="none" id="NETStandard.Library 2.0.3-to-System.Collections 4.3.0" style="stroke:#181818;stroke-width:1.0;"/><polygon fill="#181818" points="5677.93,333.41,5669.6336,328.1024,5672.9868,332.6583,5668.4309,336.0115,5677.93,333.41" style="stroke:#181818;stroke-width:1.0;"/></g><!--link NETStandard.Library 2.0.3 to System.Diagnostics.Debug 4.3.0--><g id="link_NETStandard.Library 2.0.3_System.Diagnostics.Debug 4.3.0"><path d="M3377.21,270.09 C3293.54,287.9 3182.1285,311.6105 3097.2585,329.6805 " fill="none" id="NETStandard.Library 2.0.3-to-System.Diagnostics.Debug 4.3.0" style="stroke:#181818;stroke-width:1.0;"/><polygon fill="#181818" points="3091.39,330.93,3101.0257,332.9681,3096.2804,329.8888,3099.3597,325.1435,3091.39,330.93" style="stroke:#181818;stroke-width:1.0;"/></g><!--link NETStandard.Library 2.0.3 to System.Diagnostics.Tools 4.3.0--><g id="link_NETStandard.Library 2.0.3_System.Diagnostics.Tools 4.3.0"><path d="M3432.61,271 C3395.34,288.72 3349.4492,310.5346 3312.0992,328.2846 " fill="none" id="NETStandard.Library 2.0.3-to-System.Diagnostics.Tools 4.3.0" style="stroke:#181818;stroke-width:1.0;"/><polygon fill="#181818" points="3306.68,330.86,3316.5257,330.6097,3311.196,328.7139,3313.0918,323.3842,3306.68,330.86" style="stroke:#181818;stroke-width:1.0;"/></g><!--link NETStandard.Library 2.0.3 to System.Globalization 4.3.0--><g id="link_NETStandard.Library 2.0.3_System.Globalization 4.3.0"><path d="M3566.93,271 C3633.23,288.75 3718.754,311.6386 3785.104,329.3986 " fill="none" id="NETStandard.Library 2.0.3-to-System.Globalization 4.3.0" style="stroke:#181818;stroke-width:1.0;"/><polygon fill="#181818" points="3790.9,330.95,3783.2403,324.7589,3786.07,329.6572,3781.1718,332.4869,3790.9,330.95" style="stroke:#181818;stroke-width:1.0;"/></g><!--link NETStandard.Library 2.0.3 to System.IO 4.3.0--><g id="link_NETStandard.Library 2.0.3_System.IO 4.3.0"><path d="M3481,271 C3481,288.66 3481,306.94 3481,324.68 " fill="none" id="NETStandard.Library 2.0.3-to-System.IO 4.3.0" style="stroke:#181818;stroke-width:1.0;"/><polygon fill="#181818" points="3481,330.68,3485,321.68,3481,325.68,3477,321.68,3481,330.68" style="stroke:#181818;stroke-width:1.0;"/></g><!--link NETStandard.Library 2.0.3 to System.Linq 4.3.0--><g id="link_NETStandard.Library 2.0.3_System.Linq 4.3.0"><path d="M3520.27,271 C3550.53,288.72 3587.0025,310.078 3617.3125,327.828 " fill="none" id="NETStandard.Library 2.0.3-to-System.Linq 4.3.0" style="stroke:#181818;stroke-width:1.0;"/><polygon fill="#181818" points="3622.49,330.86,3616.7451,322.8603,3618.1754,328.3333,3612.7024,329.7636,3622.49,330.86" style="stroke:#181818;stroke-width:1.0;"/></g><!--link NETStandard.Library 2.0.3 to System.Linq.Expressions 4.3.0--><g id="link_NETStandard.Library 2.0.3_System.Linq.Expressions 4.3.0"><path d="M3377.37,248.64 C2896.86,251.9 882.69,269.08 256,331 C250.52,331.54 250.8832,331.4319 245.2332,332.1419 " fill="none" id="NETStandard.Library 2.0.3-to-System.Linq.Expressions 4.3.0" style="stroke:#181818;stroke-width:1.0;"/><polygon fill="#181818" points="239.28,332.89,248.7085,335.7366,244.241,332.2666,247.711,327.7991,239.28,332.89" style="stroke:#181818;stroke-width:1.0;"/></g><!--link NETStandard.Library 2.0.3 to System.Net.Primitives 4.3.1--><g id="link_NETStandard.Library 2.0.3_System.Net.Primitives 4.3.1"><path d="M3377.37,248.7 C2919.82,252.15 1077.88,269.62 503,331 C497.49,331.59 497.8042,331.4737 492.1242,332.2537 " fill="none" id="NETStandard.Library 2.0.3-to-System.Net.Primitives 4.3.1" style="stroke:#181818;stroke-width:1.0;"/><polygon fill="#181818" points="486.18,333.07,495.6405,335.8084,491.1335,332.3898,494.5521,327.8828,486.18,333.07" style="stroke:#181818;stroke-width:1.0;"/></g><!--link NETStandard.Library 2.0.3 to System.ObjectModel 4.3.0--><g id="link_NETStandard.Library 2.0.3_System.ObjectModel 4.3.0"><path d="M3377.44,248.93 C2943.27,253.19 1267.99,273.1 743,331 C737.2,331.64 737.1989,331.5559 731.2189,332.4159 " fill="none" id="NETStandard.Library 2.0.3-to-System.ObjectModel 4.3.0" style="stroke:#181818;stroke-width:1.0;"/><polygon fill="#181818" points="725.28,333.27,734.7577,335.9481,730.2291,332.5583,733.619,328.0296,725.28,333.27" style="stroke:#181818;stroke-width:1.0;"/></g><!--link NETStandard.Library 2.0.3 to System.Reflection 4.3.0--><g id="link_NETStandard.Library 2.0.3_System.Reflection 4.3.0"><path d="M3584.71,263.3 C3689.26,279.04 3855.15,304.88 3998,331 C4003.86,332.07 4003.9884,332.0744 4010.0584,333.2444 " fill="none" id="NETStandard.Library 2.0.3-to-System.Reflection 4.3.0" style="stroke:#181818;stroke-width:1.0;"/><polygon fill="#181818" points="4015.95,334.38,4007.8697,328.7489,4011.0404,333.4337,4006.3556,336.6043,4015.95,334.38" style="stroke:#181818;stroke-width:1.0;"/></g><!--link NETStandard.Library 2.0.3 to System.Reflection.Extensions 4.3.0--><g id="link_NETStandard.Library 2.0.3_System.Reflection.Extensions 4.3.0"><path d="M3584.57,258.16 C3727.99,272.56 3995.07,300.55 4222,331 C4227.5,331.74 4227.1788,331.6817 4232.8488,332.4817 " fill="none" id="NETStandard.Library 2.0.3-to-System.Reflection.Extensions 4.3.0" style="stroke:#181818;stroke-width:1.0;"/><polygon fill="#181818" points="4238.79,333.32,4230.4371,328.1018,4233.839,332.6215,4229.3194,336.0234,4238.79,333.32" style="stroke:#181818;stroke-width:1.0;"/></g><!--link NETStandard.Library 2.0.3 to System.Reflection.Primitives 4.3.0--><g id="link_NETStandard.Library 2.0.3_System.Reflection.Primitives 4.3.0"><path d="M3584.63,257.48 C3631.99,261.74 3688.83,266.75 3740,271 C4085.17,299.65 4173.06,290.13 4517,331 C4522.49,331.65 4522.1534,331.5615 4527.8134,332.3215 " fill="none" id="NETStandard.Library 2.0.3-to-System.Reflection.Primitives 4.3.0" style="stroke:#181818;stroke-width:1.0;"/><polygon fill="#181818" points="4533.76,333.12,4525.3724,327.9578,4528.8045,332.4546,4524.3077,335.8867,4533.76,333.12" style="stroke:#181818;stroke-width:1.0;"/></g><!--link NETStandard.Library 2.0.3 to System.Resources.ResourceManager 4.3.0--><g id="link_NETStandard.Library 2.0.3_System.Resources.ResourceManager 4.3.0"><path d="M3584.6,257.97 C3631.95,262.33 3688.79,267.28 3740,271 C4212.4,305.29 4332.46,286.42 4804,331 C4809.58,331.53 4809.2937,331.4648 4815.0237,332.0748 " fill="none" id="NETStandard.Library 2.0.3-to-System.Resources.ResourceManager 4.3.0" style="stroke:#181818;stroke-width:1.0;"/><polygon fill="#181818" points="4820.99,332.71,4812.464,327.7797,4816.0181,332.1807,4811.6171,335.7348,4820.99,332.71" style="stroke:#181818;stroke-width:1.0;"/></g><!--link NETStandard.Library 2.0.3 to System.Runtime 4.3.1--><g id="link_NETStandard.Library 2.0.3_System.Runtime 4.3.1"><path d="M3584.55,258.64 C3631.9,263.14 3688.74,268.01 3740,271 C4694.31,326.64 4941.04,215.82 5890,331 C5895.51,331.67 5895.2488,331.5205 5900.9288,332.4505 " fill="none" id="NETStandard.Library 2.0.3-to-System.Runtime 4.3.1" style="stroke:#181818;stroke-width:1.0;"/><polygon fill="#181818" points="5906.85,333.42,5898.6146,328.0183,5901.9157,332.6121,5897.3219,335.9132,5906.85,333.42" style="stroke:#181818;stroke-width:1.0;"/></g><!--link NETStandard.Library 2.0.3 to System.Runtime.Extensions 4.3.1--><g id="link_NETStandard.Library 2.0.3_System.Runtime.Extensions 4.3.1"><path d="M3584.57,258.3 C3631.92,262.72 3688.76,267.64 3740,271 C4366.33,312.1 4526.56,267.38 5151,331 C5156.47,331.56 5156.0846,331.4601 5161.7146,332.1501 " fill="none" id="NETStandard.Library 2.0.3-to-System.Runtime.Extensions 4.3.1" style="stroke:#181818;stroke-width:1.0;"/><polygon fill="#181818" points="5167.67,332.88,5159.2234,327.8149,5162.7071,332.2718,5158.2502,335.7555,5167.67,332.88" style="stroke:#181818;stroke-width:1.0;"/></g><!--link NETStandard.Library 2.0.3 to System.Text.Encoding 4.3.0--><g id="link_NETStandard.Library 2.0.3_System.Text.Encoding 4.3.0"><path d="M3377.37,249.4 C2968.49,255.25 1466.46,279.83 993,331 C987.3,331.62 987.4025,331.5113 981.5225,332.3313 " fill="none" id="NETStandard.Library 2.0.3-to-System.Text.Encoding 4.3.0" style="stroke:#181818;stroke-width:1.0;"/><polygon fill="#181818" points="975.58,333.16,985.0462,335.8786,980.5321,332.4694,983.9413,327.9553,975.58,333.16" style="stroke:#181818;stroke-width:1.0;"/></g><!--link NETStandard.Library 2.0.3 to System.Text.Encoding.Extensions 4.3.0--><g id="link_NETStandard.Library 2.0.3_System.Text.Encoding.Extensions 4.3.0"><path d="M3377.33,248.17 C3065.03,249.49 2106.04,259.53 1315,331 C1309.38,331.51 1309.6169,331.4503 1303.8369,332.0603 " fill="none" id="NETStandard.Library 2.0.3-to-System.Text.Encoding.Extensions 4.3.0" style="stroke:#181818;stroke-width:1.0;"/><polygon fill="#181818" points="1297.87,332.69,1307.2401,335.7233,1302.8424,332.1652,1306.4005,327.7675,1297.87,332.69" style="stroke:#181818;stroke-width:1.0;"/></g><!--link NETStandard.Library 2.0.3 to System.Text.RegularExpressions 4.3.1--><g id="link_NETStandard.Library 2.0.3_System.Text.RegularExpressions 4.3.1"><path d="M3377.25,249.04 C3095.86,252.63 2294.77,268.04 1632,331 C1626.48,331.52 1626.8233,331.4474 1621.1533,332.0774 " fill="none" id="NETStandard.Library 2.0.3-to-System.Text.RegularExpressions 4.3.1" style="stroke:#181818;stroke-width:1.0;"/><polygon fill="#181818" points="1615.19,332.74,1624.5767,335.7217,1620.1594,332.1878,1623.6932,327.7706,1615.19,332.74" style="stroke:#181818;stroke-width:1.0;"/></g><!--link NETStandard.Library 2.0.3 to System.Threading 4.3.0--><g id="link_NETStandard.Library 2.0.3_System.Threading 4.3.0"><path d="M3584.56,258.47 C3631.91,262.93 3688.75,267.82 3740,271 C4492.8,317.71 4687.08,241.49 5436,331 C5441.72,331.68 5441.6416,331.5856 5447.5416,332.5056 " fill="none" id="NETStandard.Library 2.0.3-to-System.Threading 4.3.0" style="stroke:#181818;stroke-width:1.0;"/><polygon fill="#181818" points="5453.47,333.43,5445.1937,328.0911,5448.5297,332.6596,5443.9612,335.9956,5453.47,333.43" style="stroke:#181818;stroke-width:1.0;"/></g><!--link NETStandard.Library 2.0.3 to System.Threading.Tasks 4.3.0--><g id="link_NETStandard.Library 2.0.3_System.Threading.Tasks 4.3.0"><path d="M3377.4,249.18 C3124.09,252.98 2453.52,268.63 1898,331 C1892.18,331.65 1892.1762,331.5986 1886.1662,332.4086 " fill="none" id="NETStandard.Library 2.0.3-to-System.Threading.Tasks 4.3.0" style="stroke:#181818;stroke-width:1.0;"/><polygon fill="#181818" points="1880.22,333.21,1889.6736,335.972,1885.1752,332.5422,1888.6051,328.0437,1880.22,333.21" style="stroke:#181818;stroke-width:1.0;"/></g><!--link NETStandard.Library 2.0.3 to System.Xml.ReaderWriter 4.3.1--><g id="link_NETStandard.Library 2.0.3_System.Xml.ReaderWriter 4.3.1"><path d="M3377.42,250.89 C3155.46,257.87 2617.71,279.11 2170,331 C2164.29,331.66 2164.4054,331.5925 2158.5154,332.3925 " fill="none" id="NETStandard.Library 2.0.3-to-System.Xml.ReaderWriter 4.3.1" style="stroke:#181818;stroke-width:1.0;"/><polygon fill="#181818" points="2152.57,333.2,2162.0265,335.9523,2157.5245,332.5271,2160.9498,328.0251,2152.57,333.2" style="stroke:#181818;stroke-width:1.0;"/></g><!--link NETStandard.Library 2.0.3 to System.Xml.XDocument 4.3.0--><g id="link_NETStandard.Library 2.0.3_System.Xml.XDocument 4.3.0"><path d="M3377.19,252.94 C3188.46,262.66 2776.79,287.19 2432,331 C2426.27,331.73 2426.3575,331.666 2420.4475,332.526 " fill="none" id="NETStandard.Library 2.0.3-to-System.Xml.XDocument 4.3.0" style="stroke:#181818;stroke-width:1.0;"/><polygon fill="#181818" points="2414.51,333.39,2423.9922,336.0523,2419.4579,332.67,2422.8402,328.1357,2414.51,333.39" style="stroke:#181818;stroke-width:1.0;"/></g><!--link System.ComponentModel.TypeConverter 4.3.0 to System.Collections 4.3.0--><g id="link_System.ComponentModel.TypeConverter 4.3.0_System.Collections 4.3.0"><path d="M5291.49,271.04 C5396.02,286.85 5536.46,308.89 5660,331 C5665.81,332.04 5665.883,332.0331 5671.903,333.1631 " fill="none" id="System.ComponentModel.TypeConverter 4.3.0-to-System.Collections 4.3.0" style="stroke:#181818;stroke-width:1.0;"/><polygon fill="#181818" points="5677.8,334.27,5669.6924,328.6783,5672.8858,333.3476,5668.2165,336.541,5677.8,334.27" style="stroke:#181818;stroke-width:1.0;"/></g><!--link System.ComponentModel.TypeConverter 4.3.0 to System.ComponentModel 4.3.0--><g id="link_System.ComponentModel.TypeConverter 4.3.0_System.ComponentModel 4.3.0"><path d="M5301.6,258.06 C5494.83,270.7 5822.75,295.18 6103,331 C6108.54,331.71 6108.2607,331.6286 6113.9807,332.4486 " fill="none" id="System.ComponentModel.TypeConverter 4.3.0-to-System.ComponentModel 4.3.0" style="stroke:#181818;stroke-width:1.0;"/><polygon fill="#181818" points="6119.92,333.3,6111.5787,328.0633,6114.9706,332.5905,6110.4435,335.9824,6119.92,333.3" style="stroke:#181818;stroke-width:1.0;"/></g><!--link System.ComponentModel.TypeConverter 4.3.0 to System.ComponentModel.Primitives 4.3.0--><g id="link_System.ComponentModel.TypeConverter 4.3.0_System.ComponentModel.Primitives 4.3.0"><path d="M5301.64,255.5 C5539.82,267.04 5991.16,292.02 6374,331 C6379.71,331.58 6379.5676,331.5396 6385.4376,332.1996 " fill="none" id="System.ComponentModel.TypeConverter 4.3.0-to-System.ComponentModel.Primitives 4.3.0" style="stroke:#181818;stroke-width:1.0;"/><polygon fill="#181818" points="6391.4,332.87,6382.9033,327.8895,6386.4313,332.3113,6382.0094,335.8394,6391.4,332.87" style="stroke:#181818;stroke-width:1.0;"/></g><!--link System.ComponentModel.TypeConverter 4.3.0 to System.Globalization 4.3.0--><g id="link_System.ComponentModel.TypeConverter 4.3.0_System.Globalization 4.3.0"><path d="M4968.37,254.25 C4746.43,263.94 4341.91,286.3 3999,331 C3993.02,331.78 3992.8089,331.739 3986.6289,332.699 " fill="none" id="System.ComponentModel.TypeConverter 4.3.0-to-System.Globalization 4.3.0" style="stroke:#181818;stroke-width:1.0;"/><polygon fill="#181818" points="3980.7,333.62,3990.2073,336.1911,3985.6407,332.8525,3988.9793,328.2859,3980.7,333.62" style="stroke:#181818;stroke-width:1.0;"/></g><!--link System.ComponentModel.TypeConverter 4.3.0 to System.Reflection 4.3.0--><g id="link_System.ComponentModel.TypeConverter 4.3.0_System.Reflection 4.3.0"><path d="M4968.15,257.55 C4784.6,269.35 4481.21,292.73 4222,331 C4216.21,331.86 4216.1729,331.8016 4210.1929,332.8316 " fill="none" id="System.ComponentModel.TypeConverter 4.3.0-to-System.Reflection 4.3.0" style="stroke:#181818;stroke-width:1.0;"/><polygon fill="#181818" points="4204.28,333.85,4213.8284,336.2643,4209.2074,333.0013,4212.4704,328.3804,4204.28,333.85" style="stroke:#181818;stroke-width:1.0;"/></g><!--link System.ComponentModel.TypeConverter 4.3.0 to System.Reflection.Extensions 4.3.0--><g id="link_System.ComponentModel.TypeConverter 4.3.0_System.Reflection.Extensions 4.3.0"><path d="M4968.31,269.44 C4843.86,285.67 4669.67,308.89 4517,331 C4511.21,331.84 4511.2259,331.835 4505.2559,332.715 " fill="none" id="System.ComponentModel.TypeConverter 4.3.0-to-System.Reflection.Extensions 4.3.0" style="stroke:#181818;stroke-width:1.0;"/><polygon fill="#181818" points="4499.32,333.59,4508.8071,336.2348,4504.2665,332.8609,4507.6405,328.3203,4499.32,333.59" style="stroke:#181818;stroke-width:1.0;"/></g><!--link System.ComponentModel.TypeConverter 4.3.0 to System.Reflection.Primitives 4.3.0--><g id="link_System.ComponentModel.TypeConverter 4.3.0_System.Reflection.Primitives 4.3.0"><path d="M5031.93,271 C4952.4,288.75 4848.726,311.8833 4769.136,329.6433 " fill="none" id="System.ComponentModel.TypeConverter 4.3.0-to-System.Reflection.Primitives 4.3.0" style="stroke:#181818;stroke-width:1.0;"/><polygon fill="#181818" points="4763.28,330.95,4772.9351,332.8939,4768.16,329.8611,4771.1928,325.0859,4763.28,330.95" style="stroke:#181818;stroke-width:1.0;"/></g><!--link System.ComponentModel.TypeConverter 4.3.0 to System.Resources.ResourceManager 4.3.0--><g id="link_System.ComponentModel.TypeConverter 4.3.0_System.Resources.ResourceManager 4.3.0"><path d="M5100.72,271 C5074.31,288.72 5042.9327,309.7675 5016.4727,327.5175 " fill="none" id="System.ComponentModel.TypeConverter 4.3.0-to-System.Resources.ResourceManager 4.3.0" style="stroke:#181818;stroke-width:1.0;"/><polygon fill="#181818" points="5011.49,330.86,5021.1924,329.168,5015.6423,328.0746,5016.7357,322.5244,5011.49,330.86" style="stroke:#181818;stroke-width:1.0;"/></g><!--link System.ComponentModel.TypeConverter 4.3.0 to System.Runtime 4.3.1--><g id="link_System.ComponentModel.TypeConverter 4.3.0_System.Runtime 4.3.1"><path d="M5301.74,261.31 C5455.18,274.74 5688.76,298.2 5890,331 C5895.48,331.89 5895.2107,331.7956 5900.8707,332.8456 " fill="none" id="System.ComponentModel.TypeConverter 4.3.0-to-System.Runtime 4.3.1" style="stroke:#181818;stroke-width:1.0;"/><polygon fill="#181818" points="5906.77,333.94,5898.6506,328.3655,5901.8539,333.028,5897.1914,336.2313,5906.77,333.94" style="stroke:#181818;stroke-width:1.0;"/></g><!--link System.ComponentModel.TypeConverter 4.3.0 to System.Runtime.Extensions 4.3.1--><g id="link_System.ComponentModel.TypeConverter 4.3.0_System.Runtime.Extensions 4.3.1"><path d="M5169.28,271 C5195.69,288.72 5227.0673,309.7675 5253.5273,327.5175 " fill="none" id="System.ComponentModel.TypeConverter 4.3.0-to-System.Runtime.Extensions 4.3.1" style="stroke:#181818;stroke-width:1.0;"/><polygon fill="#181818" points="5258.51,330.86,5253.2643,322.5244,5254.3577,328.0746,5248.8076,329.168,5258.51,330.86" style="stroke:#181818;stroke-width:1.0;"/></g><!--link System.ComponentModel.TypeConverter 4.3.0 to System.Threading 4.3.0--><g id="link_System.ComponentModel.TypeConverter 4.3.0_System.Threading 4.3.0"><path d="M5224.61,271 C5293.77,288.75 5383.1883,311.6985 5452.3883,329.4585 " fill="none" id="System.ComponentModel.TypeConverter 4.3.0-to-System.Threading 4.3.0" style="stroke:#181818;stroke-width:1.0;"/><polygon fill="#181818" points="5458.2,330.95,5450.4769,324.8382,5453.357,329.707,5448.4882,332.5871,5458.2,330.95" style="stroke:#181818;stroke-width:1.0;"/></g><!--link System.Runtime.Serialization.Primitives 4.3.0 to System.Runtime 4.3.1--><g id="link_System.Runtime.Serialization.Primitives 4.3.0_System.Runtime 4.3.1"><path d="M5158.83,163 C5343.13,205.05 5725.6603,292.3255 5900.9603,332.3155 " fill="none" id="System.Runtime.Serialization.Primitives 4.3.0-to-System.Runtime 4.3.1" style="stroke:#181818;stroke-width:1.0;"/><polygon fill="#181818" points="5906.81,333.65,5898.9251,327.7485,5901.9352,332.538,5897.1458,335.5481,5906.81,333.65" style="stroke:#181818;stroke-width:1.0;"/></g><!--SRC=[hPRVJy8m4CVV_Ils3z20yzUJBq2CYGY19P8G7yfsOBNhuRL3yA-t4bXmJhPslYrflv_UzwvttKp1Xq6bSM7OgqOLT4BMPk5pq6hT1hE1Y0btQzt92wTLSC6kMVlvR7PIzTYF9eQhX5F27iISE6s3yzrwXN2orGPIriLqXGgK6M02aaNR5NHHhO4Ca8qWh8vW3nfdoeWKs0H8S2a-kH6es8X4AenOWyvXV_YijdDIk8-YjrKy5V4XclpGlxd5vDkTNIHW8ydD0YdLmOtTrswj2DO2FkoHvs5uVSckQb3p74i9yNS-TEs03du4NohKHiIQzM2UBPi08aJf7C6Tn7bUJrVn_T1LyI3Kku-6zJUsGbhx9FaHJF6YTkghX_DNMznT-xWUF8R5_cBuAwrn0yhBzn6af4zhGpHc58FElmPSyUNHzAWBEchPZhEic0O7GWGRm_egnaGev_xw8MvGYnrd3CjCSYfUPHSlBmJSoyT1o2Aktvp3dwRIHiyJe2SIXwUZuwQVzZ3EKliKvOVNVwCgvwqtwdZ__zBAciuJN3waFM4bKwangQmpcaF_Bu7LKymNN9XgpJ1bKywJ-7jIkFt8dN3v1G00]--></g></svg>